<svg width="18" height="19" viewBox="0 0 18 19" fill="none" xmlns="http://www.w3.org/2000/svg">
<path fill-rule="evenodd" clip-rule="evenodd" d="M12.3185 14.1365C11.1872 14.9924 9.7779 15.5 8.25 15.5C4.52208 15.5 1.5 12.4779 1.5 8.75C1.5 5.02208 4.52208 2 8.25 2C11.9779 2 15 5.02208 15 8.75C15 10.3227 14.4621 11.7698 13.5603 12.9174C13.586 12.8847 13.6114 12.8517 13.6365 12.8185L16.227 15.409C16.591 15.773 16.591 16.3631 16.227 16.727C15.8631 17.091 15.273 17.091 14.909 16.727L12.3185 14.1365ZM8.25 14C11.1495 14 13.5 11.6495 13.5 8.75C13.5 5.85051 11.1495 3.5 8.25 3.5C5.35051 3.5 3 5.85051 3 8.75C3 11.6495 5.35051 14 8.25 14Z" fill="white"/>
</svg>
